<svg width="42" height="42" viewBox="0 0 42 42" fill="none" xmlns="http://www.w3.org/2000/svg">
<path d="M35.9101 1H6C3.23858 1 1 3.23858 1 6V35.9101C1 38.6715 3.23858 40.9101 6 40.9101H35.9101C38.6715 40.9101 40.9101 38.6715 40.9101 35.9101V6C40.9101 3.23858 38.6715 1 35.9101 1Z" stroke="#AEAEB2" stroke-width="2" stroke-miterlimit="10"/>
<path d="M25.9569 23.8019C25.8238 23.2697 25.6509 22.711 25.4513 22.0724C25.4513 22.0724 20.4227 8.98193 19.0391 8.98193C17.6556 8.98193 12.9063 22.3518 12.9063 22.3518C12.5604 23.5491 12.3076 24.6533 12.3076 25.9703C12.3076 29.815 15.4206 32.928 19.2653 32.928C20.702 32.928 22.0324 32.5023 23.1366 31.744" stroke="#AEAEB2" stroke-width="2" stroke-miterlimit="10" stroke-linecap="round" stroke-linejoin="round"/>
<path d="M25.8382 32.6618C28.2848 32.6618 30.2682 30.6784 30.2682 28.2318C30.2682 25.7851 28.2848 23.8018 25.8382 23.8018C23.3916 23.8018 21.4082 25.7851 21.4082 28.2318C21.4082 30.6784 23.3916 32.6618 25.8382 32.6618Z" stroke="#AEAEB2" stroke-width="2" stroke-miterlimit="10" stroke-linecap="round" stroke-linejoin="round"/>
<path d="M27.7674 27.5136H26.5568V26.303C26.5568 26.2364 26.5036 26.1699 26.4237 26.1699H25.253C25.1732 26.1699 25.12 26.2231 25.12 26.303V27.5136H23.9094C23.8429 27.5136 23.7764 27.5668 23.7764 27.6466V28.8173C23.7764 28.8838 23.8296 28.9503 23.9094 28.9503H25.12V30.1609C25.12 30.2274 25.1732 30.294 25.253 30.294H26.4237C26.4902 30.294 26.5568 30.2407 26.5568 30.1609V28.9503H27.7674C27.8472 28.9503 27.9004 28.8971 27.9004 28.8173V27.6466C27.9004 27.5801 27.8472 27.5136 27.7674 27.5136Z" stroke="#AEAEB2" stroke-width="2"/>
</svg>
