<svg width="43" height="43" viewBox="0 0 43 43" fill="none" xmlns="http://www.w3.org/2000/svg">
<rect x="1" y="1" width="40.91" height="40.91" rx="4" stroke="#AEAEB2" stroke-width="2"/>
<path d="M26.4438 32.264H27.4325C29.3182 32.264 30.261 32.264 30.8468 31.6782C31.4325 31.0924 31.4325 30.1496 31.4325 28.264V12.1517C31.4325 10.2661 31.4325 9.32325 30.8468 8.73746C30.261 8.15168 29.3182 8.15168 27.4325 8.15168H26.2594C25.753 8.15168 25.4998 8.15168 25.2646 8.09382C24.9957 8.02771 24.7435 7.90649 24.5239 7.73784C24.3317 7.59026 24.1736 7.39255 23.8572 6.99712C23.0921 6.04073 22.7096 5.56254 22.2593 5.36478C21.7468 5.13967 21.1633 5.13967 20.6508 5.36478C20.2005 5.56254 19.818 6.04073 19.0528 6.99712C18.7365 7.39255 18.5783 7.59026 18.3862 7.73784C18.1666 7.90649 17.9144 8.02771 17.6455 8.09382C17.4102 8.15168 17.157 8.15168 16.6507 8.15168H15.4775C13.5919 8.15168 12.6491 8.15168 12.0633 8.73746C11.4775 9.32325 11.4775 10.2661 11.4775 12.1517V28.264C11.4775 30.1496 11.4775 31.0924 12.0633 31.6782C12.6491 32.264 13.5919 32.264 15.4775 32.264H16.4663M26.4438 32.264V33.5112C26.4438 33.9852 26.4419 34.4832 25.9305 34.6951C25.7777 34.7583 25.584 34.7583 25.1966 34.7583H17.7135C17.3261 34.7583 17.1324 34.7583 16.9796 34.6951C16.4682 34.4832 16.4663 33.9852 16.4663 33.5112V32.264M26.4438 32.264H16.4663" stroke="#AEAEB2" stroke-width="2"/>
<path d="M21.4551 37.2527V34.7583" stroke="#AEAEB2" stroke-width="2" stroke-linecap="round"/>
<path d="M11.4775 26.4436C14.9471 27.2917 17.154 27.2917 20.6236 26.4436C23.0257 25.8564 23.9752 23.804 26.4438 23.9492C28.6182 24.0771 29.7696 26.4436 31.4325 26.4436" stroke="#AEAEB2" stroke-width="2" stroke-linecap="round"/>
</svg>
