<svg width="42" height="42" viewBox="0 0 42 42" fill="none" xmlns="http://www.w3.org/2000/svg">
<path d="M35.9101 1H6C3.23858 1 1 3.23858 1 6V35.9101C1 38.6715 3.23858 40.9101 6 40.9101H35.9101C38.6715 40.9101 40.9101 38.6715 40.9101 35.9101V6C40.9101 3.23858 38.6715 1 35.9101 1Z" stroke="#AEAEB2" stroke-width="2" stroke-miterlimit="10"/>
<path d="M10.9912 12.0683C10.9912 12.0683 18.1913 11.7224 18.1913 17.6158V25.2918C18.1913 26.1299 18.8752 26.8084 19.7199 26.8084H27.9792" stroke="#AEAEB2" stroke-width="2" stroke-miterlimit="10" stroke-linecap="round" stroke-linejoin="round"/>
<path d="M10.9896 19.4385V28.5114C10.9896 28.5114 10.5203 32.9281 15.4411 32.9281C20.3618 32.9281 27.9776 32.9281 27.9776 32.9281" stroke="#AEAEB2" stroke-width="2" stroke-miterlimit="10" stroke-linecap="round" stroke-linejoin="round"/>
<path d="M26.8121 21.1545C24.1707 21.1545 22.0254 19.026 22.0254 16.4052V15.0616C22.0254 12.4408 24.1707 10.3123 26.8121 10.3123C29.4535 10.3123 31.5987 12.4408 31.5987 15.0616V16.4052C31.5853 19.026 29.4535 21.1545 26.8121 21.1545Z" stroke="#AEAEB2" stroke-width="2" stroke-miterlimit="10" stroke-linecap="round" stroke-linejoin="round"/>
<path d="M27.308 8.98193H26.4097C26.0342 8.98193 25.7393 9.27461 25.7393 9.6471C25.7393 10.0196 26.0342 10.3123 26.4097 10.3123H27.308C27.6834 10.3123 27.9784 10.0196 27.9784 9.6471C27.9784 9.28791 27.6834 8.98193 27.308 8.98193Z" stroke="#AEAEB2" stroke-width="2" stroke-miterlimit="10" stroke-linecap="round" stroke-linejoin="round"/>
<path d="M31.5829 13.4119H23.833" stroke="#AEAEB2" stroke-width="2" stroke-miterlimit="10" stroke-linecap="round" stroke-linejoin="round"/>
<path d="M26.0338 21.1411H24.1299V23.9348H26.0338V21.1411Z" stroke="#AEAEB2" stroke-width="2" stroke-miterlimit="10" stroke-linecap="round" stroke-linejoin="round"/>
<path d="M29.4654 21.1411H27.709V22.8838H29.4654V21.1411Z" stroke="#AEAEB2" stroke-width="2" stroke-miterlimit="10" stroke-linecap="round" stroke-linejoin="round"/>
<path d="M25.0808 23.9348V27.6997C25.0808 27.6997 25.4026 29.8282 22.9355 29.8282C20.4684 29.8282 19.2617 29.8282 19.2617 29.8282" stroke="#AEAEB2" stroke-width="2" stroke-miterlimit="10" stroke-linecap="round" stroke-linejoin="round"/>
<path d="M19.2619 28.3516H17.1836V31.2118H19.2619V28.3516Z" stroke="#AEAEB2" stroke-width="2" stroke-miterlimit="10" stroke-linecap="round" stroke-linejoin="round"/>
<path d="M26.8116 19.6381C27.6027 19.6381 28.2463 19.0128 28.2463 18.2412C28.2463 17.9752 28.1658 17.7623 28.0988 17.5228L28.1792 17.8155C28.1524 17.7091 28.1122 17.6027 28.072 17.4696C28.072 17.4696 27.0396 14.8489 26.758 14.8489C26.4764 14.8489 25.4976 17.5228 25.4976 17.5228C25.4306 17.7623 25.377 17.9885 25.377 18.2545C25.377 19.0128 26.0205 19.6381 26.8116 19.6381ZM26.8116 19.6381C27.1066 19.6381 27.3748 19.545 27.6027 19.3986" stroke="#AEAEB2" stroke-width="2" stroke-miterlimit="10" stroke-linecap="round" stroke-linejoin="round"/>
</svg>
