<svg width="45" height="45" viewBox="0 0 45 45" fill="none" xmlns="http://www.w3.org/2000/svg">
<path d="M38.91 1H6C3.23858 1 1 3.23857 1 6V38.91C1 41.6714 3.23857 43.91 6 43.91H38.91C41.6714 43.91 43.91 41.6714 43.91 38.91V6C43.91 3.23858 41.6714 1 38.91 1Z" stroke="#AEAEB2" stroke-width="2" stroke-miterlimit="10"/>
<path d="M31.1458 29.2219L29.6357 30.686L33.4991 34.7904L35.0092 33.3263L31.1458 29.2219Z" stroke="#AEAEB2" stroke-width="2" stroke-miterlimit="10" stroke-linecap="round" stroke-linejoin="round"/>
<path d="M19.9722 33.166C24.5098 33.166 28.1764 30.1781 28.1764 26.5171C28.1764 25.253 27.751 24.2352 27.3256 23.086L27.8117 24.4486C27.6497 23.9397 27.4471 23.4143 27.2243 22.8069C27.2243 22.8069 21.2889 10.2971 19.6684 10.2971C18.0478 10.2971 12.4366 23.0696 12.4366 23.0696C12.0314 24.2188 11.7275 25.2694 11.7275 26.5336C11.7275 30.1945 15.3941 33.1825 19.9317 33.1825C21.613 33.1825 23.1931 32.772 24.4896 32.0497" stroke="#AEAEB2" stroke-width="2" stroke-miterlimit="10" stroke-linecap="round" stroke-linejoin="round"/>
<path d="M15.0742 25.2058C15.0742 25.2058 15.5651 29.7374 19.6513 29.7374" stroke="#AEAEB2" stroke-width="2" stroke-miterlimit="10" stroke-linecap="round" stroke-linejoin="round"/>
<path d="M26.7177 31.4346C29.6484 31.4346 32.0242 29.0233 32.0242 26.0489C32.0242 23.0744 29.6484 20.6631 26.7177 20.6631C23.7869 20.6631 21.4111 23.0744 21.4111 26.0489C21.4111 29.0233 23.7869 31.4346 26.7177 31.4346Z" fill="white" stroke="#AEAEB2" stroke-width="2" stroke-miterlimit="10" stroke-linecap="round" stroke-linejoin="round"/>
</svg>
